<?xml version="1.0" standalone="no"?>
<!DOCTYPE svg PUBLIC "-//W3C//DTD SVG 20010904//EN"
 "http://www.w3.org/TR/2001/REC-SVG-20010904/DTD/svg10.dtd">
<svg version="1.0" xmlns="http://www.w3.org/2000/svg"
 width="512.000000pt" height="564.000000pt" viewBox="0 0 512.000000 564.000000"
 preserveAspectRatio="xMidYMid meet">

<g transform="translate(0.000000,564.000000) scale(0.100000,-0.100000)"
fill="#000000" stroke="none">
<path d="M765 5621 c-90 -41 -105 -84 -105 -296 l0 -165 -233 0 c-274 0 -314
-8 -370 -69 -20 -22 -41 -58 -47 -79 -7 -28 -9 -776 -8 -2458 l3 -2419 23 -36
c12 -20 41 -50 64 -65 l41 -29 1709 -3 1710 -2 783 787 784 788 0 1700 c1
1169 -2 1712 -10 1738 -6 21 -26 56 -46 78 -56 61 -96 69 -370 69 l-233 0 0
165 c0 172 -8 213 -48 259 -24 27 -91 56 -130 56 -62 0 -139 -54 -161 -113 -6
-16 -11 -102 -11 -198 l0 -169 -170 0 -170 0 0 165 c0 210 -14 251 -102 296
-67 34 -150 17 -205 -43 -37 -40 -43 -73 -43 -249 l0 -169 -170 0 -170 0 0
165 c0 210 -14 251 -102 296 -73 37 -160 14 -215 -58 l-28 -36 -3 -184 -3
-183 -169 0 -169 0 -3 183 -3 184 -28 36 c-55 72 -142 95 -215 58 -88 -45
-102 -86 -102 -296 l0 -165 -170 0 -170 0 0 169 c0 176 -6 209 -43 249 -55 60
-138 77 -205 43 -88 -45 -102 -86 -102 -296 l0 -165 -170 0 -170 0 0 169 c0
96 -5 182 -11 198 -14 38 -46 71 -91 94 -47 24 -91 24 -143 0z m1871 -2330
c24 -13 52 -41 65 -65 l24 -41 0 -915 c0 -503 -3 -927 -7 -942 -5 -14 -20 -41
-35 -59 -54 -63 -51 -63 -559 -67 -326 -3 -478 0 -518 8 -94 19 -146 80 -146
172 0 55 25 104 73 142 l39 31 399 3 399 3 0 274 0 274 -398 3 -399 3 -37 29
c-53 40 -76 82 -76 139 0 94 49 157 140 176 31 7 189 11 410 11 l360 0 0 245
0 245 -362 0 c-200 1 -383 5 -407 9 -79 16 -131 71 -139 149 -6 62 10 111 47
146 58 55 63 56 596 53 l490 -2 41 -24z m935 4 c42 -22 76 -70 88 -125 15 -71
15 -1749 0 -1820 -21 -96 -91 -147 -191 -138 -88 9 -142 70 -153 171 -3 34 -5
454 -3 932 l3 870 23 41 c48 83 148 112 233 69z"/>
<path d="M4582 539 l-534 -539 458 0 c447 0 459 1 502 21 54 26 99 87 107 142
3 23 5 239 3 479 l-3 437 -533 -540z"/>
</g>
</svg>
