<svg width="10" height="10" viewBox="0 0 10 10" fill="none" xmlns="http://www.w3.org/2000/svg">
<g clip-path="url(#clip0_1410_2087)">
<path d="M2.35572 3.30079H7.64455V7.61061C7.64455 7.86665 7.43697 8.07423 7.18125 8.07423H6.6515V9.38678C6.6515 9.7201 6.38565 9.99024 6.05746 9.99024C5.72844 9.99024 5.46297 9.7201 5.46297 9.38678V8.07423H4.53775V9.38678C4.53775 9.7201 4.27137 9.99024 3.9432 9.99024C3.6151 9.99024 3.34873 9.7201 3.34873 9.38678V8.07423H2.81945C2.56367 8.07423 2.3557 7.86665 2.3557 7.61061L2.35572 3.30079ZM1.3193 3.26561C0.987773 3.26561 0.719238 3.53833 0.719238 3.87499V6.25657C0.719238 6.59284 0.987773 6.86602 1.3193 6.86602C1.65088 6.86602 1.91936 6.59284 1.91936 6.25657V3.87499C1.91936 3.53833 1.65088 3.26561 1.3193 3.26561ZM7.64457 2.86649H2.35572C2.421 2.11302 2.90977 1.46462 3.61338 1.08919L3.11053 0.350828C3.04272 0.251257 3.0683 0.115398 3.16807 0.047605C3.26771 -0.020188 3.4033 0.00559328 3.47145 0.105085L4.01951 0.910398C4.32338 0.80532 4.65322 0.744988 5.00014 0.744988C5.34746 0.744988 5.67732 0.80532 5.98117 0.910535L6.52924 0.105378C6.59654 0.00561281 6.73256 -0.0201684 6.83221 0.0476245C6.93197 0.115417 6.95756 0.251277 6.88975 0.350847L6.38731 1.08921C7.0909 1.4644 7.57934 2.1128 7.64457 2.86649ZM4.17719 1.84268C4.17719 1.6811 4.04635 1.55005 3.88482 1.55005C3.72289 1.55005 3.59205 1.6811 3.59205 1.84268C3.59205 2.00419 3.72332 2.13518 3.88482 2.13518C4.04633 2.13518 4.17719 2.00419 4.17719 1.84268ZM6.44529 1.84268C6.44529 1.6811 6.314 1.55005 6.15252 1.55005C5.99059 1.55005 5.86014 1.6811 5.86014 1.84268C5.86014 2.00419 5.99059 2.13518 6.15252 2.13518C6.31402 2.13518 6.44529 2.00419 6.44529 1.84268ZM8.68139 3.26477C8.35022 3.26477 8.08092 3.5379 8.08092 3.87458V6.257C8.08092 6.59368 8.35022 6.86688 8.68139 6.86688C9.01299 6.86688 9.28102 6.5937 9.28102 6.257V3.87458C9.28104 3.5379 9.01299 3.26477 8.68139 3.26477Z" fill="black"/>
</g>
<defs>
<clipPath id="clip0_1410_2087">
<rect width="10" height="10" fill="white"/>
</clipPath>
</defs>
</svg>
