<svg width="10" height="10" viewBox="0 0 10 10" fill="none" xmlns="http://www.w3.org/2000/svg">
<g clip-path="url(#clip0_1410_1974)">
<path fill-rule="evenodd" clip-rule="evenodd" d="M9.8202 8.66408C9.51153 9.60208 8.3022 10.0699 7.4382 9.99188C6.2582 9.88521 4.9742 9.25934 3.99953 8.57C2.56687 7.55667 1.22486 5.9892 0.442864 4.32586C-0.109803 3.15053 -0.233801 1.70547 0.588199 0.634133C0.892199 0.238133 1.22086 0.0266382 1.71486 0.00197155C2.4002 -0.0313618 2.4962 0.360706 2.73153 0.971373C2.90687 1.42804 3.14086 1.89387 3.27153 2.36721C3.5162 3.25054 2.66086 3.28746 2.55286 4.00946C2.48553 4.46479 3.03753 5.07542 3.28687 5.40008C3.77553 6.03608 4.36286 6.58464 5.02553 7.00197C5.40486 7.2413 6.01753 7.67259 6.4522 7.43459C7.12153 7.06792 7.0582 5.93931 7.9942 6.32131C8.47886 6.51864 8.9482 6.80342 9.41086 7.05275C10.1262 7.43742 10.0929 7.83608 9.8202 8.66408C10.0242 8.04541 9.6162 9.28275 9.8202 8.66408Z" fill="black"/>
</g>
<defs>
<clipPath id="clip0_1410_1974">
<rect width="10" height="10" fill="white"/>
</clipPath>
</defs>
</svg>
