<svg width="25" height="20" viewBox="0 0 25 20" fill="none" xmlns="http://www.w3.org/2000/svg">
<g clip-path="url(#clip0_1410_1964)">
<path d="M19.2578 6.55151H1.24486C1.1881 6.55151 1.12931 6.59752 1.11354 6.65428L-0.000116335 10.6635C-0.0158827 10.7202 0.0173499 10.7662 0.0741092 10.7662H18.087C18.1438 10.7662 18.2026 10.7202 18.2183 10.6635L19.332 6.65428C19.3477 6.59752 19.3145 6.55151 19.2578 6.55151Z" fill="black"/>
<path d="M21.2968 12.3638H3.28392C3.22717 12.3638 3.16837 12.4098 3.15261 12.4665L2.03895 16.4757C2.02318 16.5325 2.05641 16.5785 2.11317 16.5785H20.1261C20.1828 16.5785 20.2416 16.5325 20.2574 16.4757L21.371 12.4665C21.3868 12.4098 21.3536 12.3638 21.2968 12.3638Z" fill="black"/>
<path d="M20.0353 0.739258H8.93006C8.89507 0.739258 8.85882 0.78527 8.8491 0.842029L8.16251 4.8512C8.15279 4.90796 8.17328 4.95397 8.20827 4.95397H19.3135C19.3485 4.95397 19.3848 4.90796 19.3945 4.8512L20.0811 0.842029C20.0908 0.78527 20.0703 0.739258 20.0353 0.739258Z" fill="black"/>
</g>
<defs>
<clipPath id="clip0_1410_1964">
<rect width="25" height="18.5215" fill="white" transform="translate(0 0.739258)"/>
</clipPath>
</defs>
</svg>
