<svg id="svg" xmlns="http://www.w3.org/2000/svg" xmlns:xlink="http://www.w3.org/1999/xlink" width="400" height="400" viewBox="0, 0, 400,400"><g id="svgg"><path id="path0" d="M132.223 0.902 C 130.252 2.873,131.437 5.860,139.991 20.494 C 145.728 30.310,148.391 35.563,147.740 35.779 C 129.568 41.837,104.404 75.747,98.489 102.148 L 97.045 108.594 199.763 108.594 L 302.481 108.594 301.930 105.273 C 297.658 79.548,278.663 51.773,256.077 38.228 C 250.590 34.937,250.049 37.367,260.227 19.584 C 269.587 3.231,270.027 1.524,265.195 0.311 C 262.410 -0.388,262.261 -0.196,252.681 16.406 C 248.094 24.355,244.228 30.986,244.090 31.140 C 243.952 31.295,241.446 30.527,238.521 29.435 C 214.772 20.565,188.196 20.255,163.711 28.561 C 159.436 30.012,155.775 31.035,155.575 30.835 C 155.375 30.635,151.281 23.704,146.477 15.431 C 137.321 -0.337,135.410 -2.285,132.223 0.902 M61.328 51.086 C 52.178 52.907,43.238 59.691,39.080 67.969 C 35.507 75.085,35.483 75.492,38.564 76.954 C 41.552 78.372,42.646 80.488,43.411 86.328 C 45.577 102.852,55.815 109.364,78.655 108.746 L 89.731 108.446 90.243 105.200 C 92.751 89.268,102.482 68.104,112.984 55.735 C 114.866 53.518,116.406 51.321,116.406 50.852 C 116.406 49.631,67.600 49.838,61.328 51.086 M158.789 72.852 C 161.812 76.723,161.473 80.834,157.833 84.475 C 154.157 88.151,147.707 87.316,145.051 82.821 C 140.125 74.481,152.849 65.248,158.789 72.852 M253.320 73.423 C 260.538 81.429,249.347 91.691,241.719 84.063 C 238.765 81.109,238.361 78.622,240.244 74.981 C 242.895 69.854,249.404 69.078,253.320 73.423 M35.443 202.734 L 35.547 321.484 37.999 326.659 C 42.114 335.346,48.212 340.969,57.422 344.572 C 62.612 346.603,115.524 348.070,117.359 346.234 C 117.789 345.805,122.268 336.545,127.313 325.657 C 132.359 314.768,144.285 289.071,153.816 268.552 L 171.144 231.245 167.993 226.755 C 154.793 207.951,161.400 181.313,181.756 171.269 L 185.777 169.285 186.054 160.560 C 186.443 148.289,190.626 142.839,199.652 142.839 C 208.904 142.839,213.281 148.946,213.281 161.854 L 213.281 170.090 217.916 172.951 C 236.676 184.530,240.865 207.454,228.011 228.195 L 226.273 230.999 239.017 257.492 C 246.026 272.063,254.441 289.602,257.716 296.468 C 260.992 303.334,267.737 317.396,272.704 327.718 L 281.737 346.484 296.728 346.697 L 311.719 346.909 311.719 262.896 L 311.719 178.883 314.392 175.965 L 317.065 173.047 328.650 172.638 C 347.056 171.987,354.854 166.559,356.680 153.125 C 357.422 147.665,358.485 145.617,361.385 144.056 C 364.551 142.350,364.640 141.507,362.205 136.277 C 358.538 128.402,351.665 122.718,342.188 119.721 C 339.395 118.838,336.230 117.830,335.156 117.482 C 334.082 117.134,271.661 116.662,196.443 116.433 L 59.683 116.016 54.307 113.287 C 44.517 108.317,37.509 98.884,36.022 88.672 C 35.618 85.895,35.382 132.386,35.443 202.734 M195.668 151.918 C 193.821 153.764,193.750 154.227,193.750 164.362 L 193.750 174.889 189.633 176.086 C 168.435 182.248,161.296 210.302,176.950 225.923 L 180.331 229.297 151.066 292.188 C 107.395 386.041,110.154 379.865,110.173 383.717 C 110.249 398.724,130.206 405.933,139.484 394.305 C 141.542 391.726,146.179 382.030,173.192 323.828 C 190.797 285.894,191.294 285.156,199.219 285.156 C 206.359 285.156,208.279 287.425,217.409 306.641 C 221.084 314.375,226.539 325.801,229.532 332.031 C 232.525 338.262,240.120 354.082,246.410 367.188 C 258.812 393.030,261.232 396.580,267.654 398.364 C 279.332 401.606,290.193 392.603,288.861 380.785 C 288.628 378.721,281.781 363.606,269.746 338.589 C 259.432 317.150,243.344 283.685,233.996 264.221 L 217.000 228.833 219.905 225.940 C 234.325 211.576,228.823 185.174,209.763 177.274 L 205.469 175.494 205.469 164.366 C 205.469 150.536,201.760 145.825,195.668 151.918 M363.992 154.382 C 362.062 171.104,349.070 180.418,327.623 180.455 C 321.126 180.466,319.613 180.691,319.224 181.705 C 318.604 183.320,318.604 396.368,319.224 397.983 C 319.867 399.658,338.441 399.746,343.865 398.100 C 351.906 395.660,358.844 389.705,362.341 382.242 L 364.453 377.734 364.660 290.625 C 364.893 192.856,364.675 148.466,363.992 154.382 M202.788 187.868 C 222.437 193.730,218.495 222.656,198.047 222.656 C 177.148 222.656,173.791 192.403,194.141 187.449 C 197.708 186.581,198.621 186.625,202.788 187.868 M195.554 293.907 C 194.688 295.013,171.094 345.659,171.094 346.413 C 171.094 346.667,183.926 346.875,199.609 346.875 C 215.293 346.875,228.125 346.748,228.125 346.593 C 228.125 345.918,205.524 298.709,203.574 295.313 C 202.282 293.061,196.949 292.126,195.554 293.907 " stroke="none" fill="#000000" fill-rule="evenodd"></path></g></svg>