<svg id="svg" xmlns="http://www.w3.org/2000/svg" xmlns:xlink="http://www.w3.org/1999/xlink" width="400" height="400" viewBox="0, 0, 400,400"><g id="svgg"><path id="path0" d="M62.899 33.731 C 48.706 36.437,36.310 49.109,33.659 63.620 C 32.471 70.125,32.471 329.875,33.659 336.380 C 36.375 351.247,48.753 363.625,63.620 366.341 C 70.125 367.529,329.875 367.529,336.380 366.341 C 351.247 363.625,363.625 351.247,366.341 336.380 C 367.529 329.875,367.529 70.125,366.341 63.620 C 363.625 48.753,351.247 36.375,336.380 33.659 C 330.392 32.566,68.650 32.634,62.899 33.731 M299.998 134.737 L 311.388 146.037 241.043 216.379 L 170.698 286.720 135.740 251.755 L 100.781 216.790 112.301 205.271 L 123.820 193.751 147.265 217.187 L 170.710 240.622 229.298 182.030 C 261.522 149.804,288.049 123.438,288.247 123.438 C 288.445 123.438,293.733 128.522,299.998 134.737 " stroke="none" fill="#000000" fill-rule="evenodd"></path></g></svg>