<svg id="svg" xmlns="http://www.w3.org/2000/svg" xmlns:xlink="http://www.w3.org/1999/xlink" width="400" height="351.99999999999994" viewBox="0, 0, 400,351.99999999999994"><g id="svgg"><path id="path0" d="M8.000 142.000 L 8.000 276.000 199.000 276.000 L 390.000 276.000 390.000 142.000 L 390.000 8.000 199.000 8.000 L 8.000 8.000 8.000 142.000 M370.000 246.000 L 370.000 254.000 199.000 254.000 L 28.000 254.000 28.000 246.000 L 28.000 238.000 199.000 238.000 L 370.000 238.000 370.000 246.000 M195.917 243.100 C 191.691 248.192,198.639 254.218,203.328 249.529 C 206.597 246.260,204.411 240.000,200.000 240.000 C 199.169 240.000,197.332 241.395,195.917 243.100 M148.000 300.000 L 148.000 318.000 200.000 318.000 L 252.000 318.000 252.000 300.000 L 252.000 282.000 242.000 282.000 L 232.000 282.000 232.000 290.000 L 232.000 298.000 200.000 298.000 L 168.000 298.000 168.000 290.000 L 168.000 282.000 158.000 282.000 L 148.000 282.000 148.000 300.000 M94.000 334.000 L 94.000 344.000 200.000 344.000 L 306.000 344.000 306.000 334.000 L 306.000 324.000 200.000 324.000 L 94.000 324.000 94.000 334.000 " stroke="none" fill="#000000" fill-rule="evenodd"></path></g></svg>