<svg id="svg" xmlns="http://www.w3.org/2000/svg" xmlns:xlink="http://www.w3.org/1999/xlink" width="400" height="432.4324324324324" viewBox="0, 0, 400,432.4324324324324"><g id="svgg"><path id="path0" d="M10.811 215.135 L 10.811 419.459 16.216 419.459 C 20.781 419.459,21.622 418.450,21.622 412.973 L 21.622 406.486 36.757 406.486 L 51.892 406.486 51.892 412.973 C 51.892 418.450,52.733 419.459,57.297 419.459 L 62.703 419.459 62.703 215.135 L 62.703 10.811 57.297 10.811 C 52.332 10.811,51.892 11.604,51.892 20.541 L 51.892 30.270 36.757 30.270 L 21.622 30.270 21.622 20.541 C 21.622 11.604,21.181 10.811,16.216 10.811 L 10.811 10.811 10.811 215.135 M337.297 215.135 L 337.297 419.459 342.703 419.459 C 347.267 419.459,348.108 418.450,348.108 412.973 L 348.108 406.486 363.243 406.486 L 378.378 406.486 378.378 412.973 C 378.378 418.018,379.339 419.459,382.703 419.459 C 386.997 419.459,387.027 418.018,387.027 215.135 C 387.027 12.252,386.997 10.811,382.703 10.811 C 379.019 10.811,378.378 12.252,378.378 20.541 L 378.378 30.270 363.243 30.270 L 348.108 30.270 348.108 20.541 C 348.108 11.604,347.668 10.811,342.703 10.811 L 337.297 10.811 337.297 215.135 M71.351 120.000 L 71.351 209.730 200.000 209.730 L 328.649 209.730 328.649 120.000 L 328.649 30.270 200.000 30.270 L 71.351 30.270 71.351 120.000 M51.892 62.703 L 51.892 71.351 36.757 71.351 L 21.622 71.351 21.622 62.703 L 21.622 54.054 36.757 54.054 L 51.892 54.054 51.892 62.703 M378.378 62.703 L 378.378 71.351 363.243 71.351 L 348.108 71.351 348.108 62.703 L 348.108 54.054 363.243 54.054 L 378.378 54.054 378.378 62.703 M51.892 99.459 L 51.892 108.108 36.757 108.108 L 21.622 108.108 21.622 99.459 L 21.622 90.811 36.757 90.811 L 51.892 90.811 51.892 99.459 M378.378 99.459 L 378.378 108.108 363.243 108.108 L 348.108 108.108 348.108 99.459 L 348.108 90.811 363.243 90.811 L 378.378 90.811 378.378 99.459 M51.892 140.541 L 51.892 149.189 36.757 149.189 L 21.622 149.189 21.622 140.541 L 21.622 131.892 36.757 131.892 L 51.892 131.892 51.892 140.541 M378.378 140.541 L 378.378 149.189 363.243 149.189 L 348.108 149.189 348.108 140.541 L 348.108 131.892 363.243 131.892 L 378.378 131.892 378.378 140.541 M51.892 179.459 L 51.892 190.270 36.757 190.270 L 21.622 190.270 21.622 179.459 L 21.622 168.649 36.757 168.649 L 51.892 168.649 51.892 179.459 M378.378 179.459 L 378.378 190.270 363.243 190.270 L 348.108 190.270 348.108 179.459 L 348.108 168.649 363.243 168.649 L 378.378 168.649 378.378 179.459 M51.892 218.378 L 51.892 227.027 36.757 227.027 L 21.622 227.027 21.622 218.378 L 21.622 209.730 36.757 209.730 L 51.892 209.730 51.892 218.378 M378.378 218.378 L 378.378 227.027 363.243 227.027 L 348.108 227.027 348.108 218.378 L 348.108 209.730 363.243 209.730 L 378.378 209.730 378.378 218.378 M71.351 316.757 L 71.351 406.486 200.000 406.486 L 328.649 406.486 328.649 316.757 L 328.649 227.027 200.000 227.027 L 71.351 227.027 71.351 316.757 M51.892 257.297 L 51.892 268.108 36.757 268.108 L 21.622 268.108 21.622 257.297 L 21.622 246.486 36.757 246.486 L 51.892 246.486 51.892 257.297 M378.378 257.297 L 378.378 268.108 363.243 268.108 L 348.108 268.108 348.108 257.297 L 348.108 246.486 363.243 246.486 L 378.378 246.486 378.378 257.297 M51.892 296.216 L 51.892 304.865 36.757 304.865 L 21.622 304.865 21.622 296.216 L 21.622 287.568 36.757 287.568 L 51.892 287.568 51.892 296.216 M378.378 296.216 L 378.378 304.865 363.243 304.865 L 348.108 304.865 348.108 296.216 L 348.108 287.568 363.243 287.568 L 378.378 287.568 378.378 296.216 M51.892 337.297 L 51.892 345.946 36.757 345.946 L 21.622 345.946 21.622 337.297 L 21.622 328.649 36.757 328.649 L 51.892 328.649 51.892 337.297 M378.378 337.297 L 378.378 345.946 363.243 345.946 L 348.108 345.946 348.108 337.297 L 348.108 328.649 363.243 328.649 L 378.378 328.649 378.378 337.297 M51.892 374.054 L 51.892 382.703 36.757 382.703 L 21.622 382.703 21.622 374.054 L 21.622 365.405 36.757 365.405 L 51.892 365.405 51.892 374.054 M378.378 374.054 L 378.378 382.703 363.243 382.703 L 348.108 382.703 348.108 374.054 L 348.108 365.405 363.243 365.405 L 378.378 365.405 378.378 374.054 " stroke="none" fill="#000000" fill-rule="evenodd"></path></g></svg>