<svg id="svg" xmlns="http://www.w3.org/2000/svg" xmlns:xlink="http://www.w3.org/1999/xlink" width="400" height="479.0419161676647" viewBox="0, 0, 400,479.0419161676647"><g id="svgg"><path id="path0" d="M11.976 239.521 L 11.976 467.066 126.772 467.066 L 241.569 467.066 242.341 402.994 C 243.405 314.735,236.994 320.958,326.869 320.958 L 388.024 320.958 388.024 166.467 L 388.024 11.976 200.000 11.976 L 11.976 11.976 11.976 239.521 M326.946 97.006 C 326.946 101.727,325.142 101.805,202.667 102.417 C 76.730 103.046,70.301 102.648,73.461 94.415 C 75.896 88.068,326.946 90.635,326.946 97.006 M325.499 165.064 C 327.337 166.229,328.180 168.907,327.370 171.016 C 326.047 174.464,313.246 174.850,200.217 174.850 C 73.378 174.850,67.616 174.462,74.339 166.362 C 77.676 162.340,319.226 161.092,325.499 165.064 M239.089 242.515 L 238.323 247.904 158.084 248.484 C 78.351 249.061,69.810 248.309,72.630 240.960 C 73.940 237.547,83.197 237.126,156.978 237.126 L 239.854 237.126 239.089 242.515 M176.996 311.172 C 189.132 318.857,178.173 320.958,125.965 320.958 C 74.160 320.958,68.118 319.965,74.339 312.470 C 77.663 308.464,170.858 307.286,176.996 311.172 M259.739 336.329 C 254.987 339.800,252.188 395.662,254.359 443.746 L 255.090 459.946 318.546 396.440 L 382.002 332.934 323.195 332.934 C 276.227 332.934,263.453 333.618,259.739 336.329 " stroke="none" fill="#000000" fill-rule="evenodd"></path></g></svg>