<svg id="svg" xmlns="http://www.w3.org/2000/svg" xmlns:xlink="http://www.w3.org/1999/xlink" width="400" height="322" viewBox="0, 0, 400,322"><g id="svgg"><path id="path0" d="M8.000 161.000 L 8.000 314.000 200.000 314.000 L 392.000 314.000 392.000 161.000 L 392.000 8.000 200.000 8.000 L 8.000 8.000 8.000 161.000 M362.000 145.400 C 362.000 204.470,361.249 251.945,360.330 250.900 C 359.412 249.855,345.827 231.675,330.142 210.500 C 314.456 189.325,301.318 172.000,300.945 172.000 C 300.573 172.000,295.555 179.875,289.793 189.500 C 284.032 199.125,278.198 208.666,276.829 210.702 C 274.625 213.980,269.930 206.989,235.859 149.702 C 214.695 114.116,196.359 83.498,195.114 81.662 C 193.205 78.846,188.369 85.339,164.207 123.162 C 148.452 147.823,134.859 168.000,133.999 168.000 C 133.139 168.000,126.321 156.788,118.847 143.083 C 107.143 121.621,104.929 118.641,102.874 121.583 C 101.562 123.463,87.658 145.250,71.977 170.000 C 56.296 194.750,42.236 216.775,40.733 218.945 C 38.405 222.306,38.000 209.194,38.000 130.445 L 38.000 38.000 200.000 38.000 L 362.000 38.000 362.000 145.400 " stroke="none" fill="#000000" fill-rule="evenodd"></path></g></svg>