<svg id="svg" xmlns="http://www.w3.org/2000/svg" xmlns:xlink="http://www.w3.org/1999/xlink" width="400" height="400" viewBox="0, 0, 400,400"><g id="svgg"><path id="path0" d="M27.535 79.887 L 0.000 107.430 0.000 227.543 L 0.000 347.656 172.465 347.656 L 344.930 347.656 372.465 320.113 L 400.000 292.570 400.000 172.457 L 400.000 52.344 227.535 52.344 L 55.070 52.344 27.535 79.887 M171.484 106.959 C 203.747 114.345,217.538 138.538,218.546 189.518 C 219.402 232.840,211.994 256.954,193.553 270.870 L 191.403 272.493 201.940 289.418 L 212.476 306.342 201.236 311.688 C 195.054 314.628,189.347 317.240,188.553 317.492 C 187.355 317.872,185.195 314.833,175.867 299.641 L 164.625 281.333 162.196 281.877 C 144.505 285.842,114.256 279.608,101.453 269.359 C 72.310 246.029,71.007 149.256,99.455 121.067 C 107.826 112.773,117.373 108.698,136.719 105.162 C 141.869 104.220,164.672 105.399,171.484 106.959 M281.250 132.422 L 281.250 150.781 298.828 150.781 L 316.406 150.781 316.406 162.500 L 316.406 174.219 298.828 174.219 L 281.250 174.219 281.250 204.513 C 281.250 256.636,281.296 256.740,304.149 255.755 L 316.219 255.234 316.793 265.549 C 317.474 277.791,318.500 276.361,307.675 278.255 C 284.185 282.365,266.950 278.032,260.634 266.428 C 255.957 257.835,255.344 251.911,254.905 211.133 L 254.507 174.219 244.832 174.219 L 235.156 174.219 235.156 162.500 L 235.156 150.781 244.922 150.781 L 254.688 150.781 254.688 132.422 L 254.688 114.063 267.969 114.063 L 281.250 114.063 281.250 132.422 M134.766 130.380 C 114.022 136.410,105.599 158.714,107.358 202.957 C 108.978 243.692,118.407 257.354,146.094 259.081 C 178.459 261.101,190.625 243.546,190.625 194.822 C 190.625 153.731,181.743 134.170,161.094 129.785 C 154.768 128.442,140.309 128.769,134.766 130.380 " stroke="none" fill="#000000" fill-rule="evenodd"></path></g></svg>