<svg id="svg" xmlns="http://www.w3.org/2000/svg" xmlns:xlink="http://www.w3.org/1999/xlink" width="400" height="400" viewBox="0, 0, 400,400"><g id="svgg"><path id="path0" d="M268.845 32.344 C 216.779 45.975,193.256 52.456,192.601 53.353 C 192.079 54.065,186.946 62.743,181.194 72.637 L 170.734 90.625 147.585 90.625 L 124.435 90.625 68.468 145.021 C 37.685 174.939,12.500 199.679,12.500 200.000 C 12.500 200.321,37.685 225.061,68.468 254.979 L 124.435 309.375 147.585 309.375 L 170.734 309.375 181.266 327.494 C 187.058 337.459,192.324 346.200,192.969 346.917 C 194.188 348.275,345.711 388.143,346.532 387.323 C 347.069 386.785,387.475 240.601,387.489 239.141 C 387.495 238.539,382.402 229.644,376.172 219.372 C 369.941 209.101,364.844 200.394,364.844 200.025 C 364.844 199.655,369.941 190.988,376.172 180.766 C 382.402 170.543,387.500 161.720,387.500 161.160 C 387.500 160.394,349.386 21.149,347.183 13.867 C 346.585 11.890,350.484 10.970,268.845 32.344 M289.695 70.508 C 289.084 71.475,274.061 96.787,256.309 126.758 L 224.034 181.250 157.526 181.250 L 91.017 181.250 132.618 139.648 L 174.219 98.047 232.227 83.470 C 264.131 75.453,290.363 68.861,290.520 68.822 C 290.676 68.782,290.305 69.541,289.695 70.508 M340.643 145.508 L 356.275 200.000 340.643 254.492 C 332.046 284.463,324.731 309.641,324.387 310.443 C 323.722 311.997,258.203 202.664,258.203 200.000 C 258.203 197.336,323.722 88.003,324.387 89.557 C 324.731 90.359,332.046 115.537,340.643 145.508 M256.309 273.242 C 274.061 303.213,289.057 328.484,289.635 329.401 C 290.567 330.879,284.106 329.423,232.454 316.515 L 174.223 301.963 132.622 260.356 L 91.021 218.750 157.528 218.750 L 224.034 218.750 256.309 273.242 " stroke="none" fill="#000000" fill-rule="evenodd"></path></g></svg>