<svg id="svg" xmlns="http://www.w3.org/2000/svg" xmlns:xlink="http://www.w3.org/1999/xlink" width="400" height="400" viewBox="0, 0, 400,400"><g id="svgg"><path id="path0" d="M218.054 73.365 L 142.748 146.681 130.163 137.116 C 123.241 131.855,101.582 115.420,82.031 100.593 L 46.484 73.634 23.239 85.258 L -0.006 96.883 0.192 200.199 L 0.391 303.516 23.291 315.075 L 46.192 326.634 55.713 319.382 C 60.950 315.394,82.600 298.889,103.825 282.704 L 142.416 253.277 206.950 315.875 C 242.444 350.303,276.431 383.316,282.477 389.236 L 293.469 400.000 311.773 399.963 L 330.078 399.926 364.844 385.980 L 399.609 372.034 399.806 200.242 L 400.003 28.449 364.650 14.214 L 329.297 -0.021 311.328 0.014 L 293.359 0.048 218.054 73.365 M288.096 226.147 L 287.891 252.293 253.340 226.342 C 234.337 212.069,218.781 200.170,218.770 199.899 C 218.759 199.629,234.307 187.742,253.320 173.485 L 287.891 147.562 288.096 173.781 C 288.209 188.201,288.209 211.766,288.096 226.147 M76.563 189.345 C 82.793 194.910,87.984 199.532,88.099 199.615 C 88.305 199.764,67.274 218.939,64.648 220.995 C 63.353 222.010,63.281 220.905,63.281 200.050 C 63.281 182.639,63.486 178.158,64.258 178.629 C 64.795 178.957,70.332 183.779,76.563 189.345 " stroke="none" fill="#000000" fill-rule="evenodd"></path></g></svg>